<svg xmlns="http://www.w3.org/2000/svg" viewBox="0 0 100 100"><g fill="#24422F"><path d="M50 5 L54.5 40 L50 50 L45.5 40 Z"/><path d="M50 5 L54.5 40 L50 50 L45.5 40 Z" transform="rotate(45 50 50)"/><path d="M50 5 L54.5 40 L50 50 L45.5 40 Z" transform="rotate(90 50 50)"/><path d="M50 5 L54.5 40 L50 50 L45.5 40 Z" transform="rotate(135 50 50)"/><path d="M50 5 L54.5 40 L50 50 L45.5 40 Z" transform="rotate(180 50 50)"/><path d="M50 5 L54.5 40 L50 50 L45.5 40 Z" transform="rotate(225 50 50)"/><path d="M50 5 L54.5 40 L50 50 L45.5 40 Z" transform="rotate(270 50 50)"/><path d="M50 5 L54.5 40 L50 50 L45.5 40 Z" transform="rotate(315 50 50)"/><circle cx="50" cy="50" r="3"/></g></svg>
